<svg width="179" height="73" viewBox="0 0 179 73" fill="none" xmlns="http://www.w3.org/2000/svg">
<path d="M45.3531 7.28125V0.0625H74.6031V7.28125H64.3844V34H55.5719V7.28125H45.3531ZM75.8125 34V0.0625H84.7188V13.4219H97.2344V0.0625H106.188V34H97.2344V20.6406H84.7188V34H75.8125ZM108.334 34V0.0625H132.569V7.28125H117.241V13.4219H131.303V20.6406H117.241V26.7812H132.522V34H108.334ZM19.9375 48.5625C19.75 46.2656 18.25 44.9531 15.2031 44.9531C12.25 44.9531 10.9375 46.0781 10.8906 47.6719C10.8438 49.4062 12.4375 50.3906 15.5781 51.0469L18.3906 51.7031C25.7031 53.25 28.9375 56.8125 28.9844 62.0156C28.9375 68.6719 23.8281 72.4219 15.25 72.4219C6.48438 72.4219 0.8125 68.5781 0.71875 60.2344H9.25C9.39062 63.375 11.5938 65.0625 15.1094 65.0625C18.1562 65.0625 19.7969 63.7969 19.8438 62.0156C19.7969 60.375 18.4375 59.4375 14.6406 58.5938L11.2188 57.8438C5.26562 56.5312 1.60938 53.5781 1.60938 48.3281C1.5625 41.9062 7.23438 37.5938 15.2031 37.5938C23.3594 37.5938 28.4688 41.9531 28.5156 48.5625H19.9375ZM52.6 50.6719C52.3188 47.4844 50.1625 45.375 46.5531 45.375C41.8656 45.375 39.1938 48.9844 39.1938 55.0312C39.1938 61.4062 41.9125 64.6875 46.5063 64.6875C49.9281 64.6875 52.1313 62.8125 52.6 59.8125L61.6469 59.9062C61.1781 65.7188 56.0688 72.4688 46.3188 72.4688C36.9906 72.4688 30.0063 66.2812 30.0063 55.0312C30.0063 43.7344 37.1781 37.5938 46.3188 37.5938C54.7563 37.5938 60.8969 42.3281 61.6469 50.6719H52.6ZM63.5594 72V38.0625H87.7938V45.2812H72.4656V51.4219H86.5281V58.6406H72.4656V64.7812H87.7469V72H63.5594ZM119.284 38.0625V72H111.831L99.2219 53.6719H98.9875V72H90.0813V38.0625H97.675L110.097 56.2969H110.378V38.0625H119.284ZM120.494 45.2812V38.0625H149.744V45.2812H139.525V72H130.713V45.2812H120.494ZM169.234 48.5625C169.047 46.2656 167.547 44.9531 164.5 44.9531C161.547 44.9531 160.234 46.0781 160.188 47.6719C160.141 49.4062 161.734 50.3906 164.875 51.0469L167.688 51.7031C175 53.25 178.234 56.8125 178.281 62.0156C178.234 68.6719 173.125 72.4219 164.547 72.4219C155.781 72.4219 150.109 68.5781 150.016 60.2344H158.547C158.688 63.375 160.891 65.0625 164.406 65.0625C167.453 65.0625 169.094 63.7969 169.141 62.0156C169.094 60.375 167.734 59.4375 163.938 58.5938L160.516 57.8438C154.562 56.5312 150.906 53.5781 150.906 48.3281C150.859 41.9062 156.531 37.5938 164.5 37.5938C172.656 37.5938 177.766 41.9531 177.812 48.5625H169.234Z" fill="white"/>
</svg>
